<svg xmlns="http://www.w3.org/2000/svg" width="47" height="47" viewBox="0 0 47 47">
  <metadata><?xpacket begin="﻿" id="W5M0MpCehiHzreSzNTczkc9d"?>
<x:xmpmeta xmlns:x="adobe:ns:meta/" x:xmptk="Adobe XMP Core 5.6-c142 79.160924, 2017/07/13-01:06:39        ">
   <rdf:RDF xmlns:rdf="http://www.w3.org/1999/02/22-rdf-syntax-ns#">
      <rdf:Description rdf:about=""/>
   </rdf:RDF>
</x:xmpmeta>
                                                                                                    
                                                                                                    
                                                                                                    
                                                                                                    
                                                                                                    
                                                                                                    
                                                                                                    
                                                                                                    
                                                                                                    
                                                                                                    
                                                                                                    
                                                                                                    
                                                                                                    
                                                                                                    
                                                                                                    
                                                                                                    
                                                                                                    
                                                                                                    
                                                                                                    
                                                                                                    
                           
<?xpacket end="w"?></metadata>
<defs>
    <style>
      .cls-1 {
        fill: #fff;
        fill-rule: evenodd;
      }
    </style>
  </defs>
  <path id="icon" class="cls-1" d="M1251,720.5a23.5,23.5,0,1,1-23.5-23.5C1244.28,697,1251,711.7,1251,720.5Zm-23.5-17.625a17.625,17.625,0,1,0,17.63,17.625c0-.493-0.04-0.977-0.08-1.459-1.2.386-2.99,0.513-3.14,1.092-0.42,1.673-3.21,1.928-3.21,1.928s-3.4,2.662-4.13,2.111,0.82-4.865,1.56-5.141,0-2.2,0-2.754c0-.257-2.82-4.547-2.76-4.5-0.48-.384-0.27-4.039.92-4.131s5.14,0.643,4.41,1.928c-0.27.465,0.34,0.4,1.18,0.153,0.11-.168.26-0.346,0.43-0.6a1.072,1.072,0,0,0,.19-0.485A17.536,17.536,0,0,0,1227.5,702.875Zm8.81,26.9c0.46,0.826,3.49,1.285,2.21,1.1s-1.01,2.479-2.67,2.2-2.48.826-4.13,0.826c-1.4,0-3.39-1.56-3.94-2.2s1.28-.092,2.01-1.1,1.01-.826,1.93-1.01,0.83-1.01,1.56-1.1A3.958,3.958,0,0,1,1236.31,729.772Zm-10.01-22.528s-4.37,2.933-5.67.726-2.93.351-5.46,2.493-0.17-2.228,3.87-4.982,6.68-2.33,8.34-2.028c1.01,0.184,3.09.4,3.09,0.4l-2.49,3.85Zm-8.9,8.483c0.46-.735,2.21-6.151,3.86-6.151s3.78-1.661,2.02.459c-0.96,1.147-.82,1.6-0.67,1.737a2.761,2.761,0,0,0-.43-0.085c-1.47-.183-1.38,4.223-0.74,4.957s0.92,1.928,1.84,1.1c1.37,0-.37.184,2.11,0.459s2.66-.643,2.57,1.285-1.47,2.2-1.75,3.3-1.37,2.662-1.19,3.58a9.613,9.613,0,0,0,.46,2.2c0.37,0.918.37,4.039-.27,4.039s-1.29-2.57-1.29-2.57l-2.02-2.02-1.65,2.295-1.84-.367-1.28-.918s-3.95-.184-4.13-1.469-2.48-2.754-2.48-4.314-1.01-4.131-.19-4.682,0.83,0.367,1.66-.092,0.55-1.193,2.02-1.193A4.426,4.426,0,0,0,1217.4,715.727Zm5.21-3.955C1222.79,711.83,1222.7,711.862,1222.61,711.772Z" transform="translate(-1204 -697)"/>
</svg>
