<svg xmlns="http://www.w3.org/2000/svg" width="47" height="36" viewBox="0 0 47 36">
  <metadata><?xpacket begin="﻿" id="W5M0MpCehiHzreSzNTczkc9d"?>
<x:xmpmeta xmlns:x="adobe:ns:meta/" x:xmptk="Adobe XMP Core 5.6-c142 79.160924, 2017/07/13-01:06:39        ">
   <rdf:RDF xmlns:rdf="http://www.w3.org/1999/02/22-rdf-syntax-ns#">
      <rdf:Description rdf:about=""/>
   </rdf:RDF>
</x:xmpmeta>
                                                                                                    
                                                                                                    
                                                                                                    
                                                                                                    
                                                                                                    
                                                                                                    
                                                                                                    
                                                                                                    
                                                                                                    
                                                                                                    
                                                                                                    
                                                                                                    
                                                                                                    
                                                                                                    
                                                                                                    
                                                                                                    
                                                                                                    
                                                                                                    
                                                                                                    
                                                                                                    
                           
<?xpacket end="w"?></metadata>
<defs>
    <style>
      .cls-1 {
        fill: #232324;
        fill-rule: evenodd;
      }
    </style>
  </defs>
  <path id="graph" class="cls-1" d="M379.969,60.969a1,1,0,0,1-1,1h-3a1,1,0,0,1-1-1V55.594a1,1,0,0,1,1-1h3a1,1,0,0,1,1,1v5.375Zm7,0a1,1,0,0,1-1,1h-3a1,1,0,0,1-1-1v-16a1,1,0,0,1,1-1h3a1,1,0,0,1,1,1v16Zm7,0a1,1,0,0,1-1,1h-3a1,1,0,0,1-1-1v-34a1,1,0,0,1,1-1h3a1,1,0,0,1,1,1v34Zm7,0a1,1,0,0,1-1,1h-3a1,1,0,0,1-1-1V33.344a1,1,0,0,1,1-1h3a1,1,0,0,1,1,1V60.969Zm7,0a1,1,0,0,1-1,1h-3a1,1,0,0,1-1-1V42.094a1,1,0,0,1,1-1h3a1,1,0,0,1,1,1V60.969Zm7,0a1,1,0,0,1-1,1h-3a1,1,0,0,1-1-1v-16.5a1,1,0,0,1,1-1h3a1,1,0,0,1,1,1v16.5Zm7,0a1,1,0,0,1-1,1h-3a1,1,0,0,1-1-1V39.594a1,1,0,0,1,1-1h3a1,1,0,0,1,1,1V60.969Z" transform="translate(-374.969 -25.969)"/>
</svg>
