<svg xmlns="http://www.w3.org/2000/svg" width="30" height="30" viewBox="0 0 30 30">
  <metadata><?xpacket begin="﻿" id="W5M0MpCehiHzreSzNTczkc9d"?>
<x:xmpmeta xmlns:x="adobe:ns:meta/" x:xmptk="Adobe XMP Core 5.6-c142 79.160924, 2017/07/13-01:06:39        ">
   <rdf:RDF xmlns:rdf="http://www.w3.org/1999/02/22-rdf-syntax-ns#">
      <rdf:Description rdf:about=""/>
   </rdf:RDF>
</x:xmpmeta>
                                                                                                    
                                                                                                    
                                                                                                    
                                                                                                    
                                                                                                    
                                                                                                    
                                                                                                    
                                                                                                    
                                                                                                    
                                                                                                    
                                                                                                    
                                                                                                    
                                                                                                    
                                                                                                    
                                                                                                    
                                                                                                    
                                                                                                    
                                                                                                    
                                                                                                    
                                                                                                    
                           
<?xpacket end="w"?></metadata>
<defs>
    <style>
      .cls-1 {
        fill: #eb4f4e;
        fill-rule: evenodd;
      }
    </style>
  </defs>
  <path id="icon" class="cls-1" d="M863.529,2186.26h0l-3-.57s0,0,0-.01a0.559,0.559,0,0,1-.392-0.95s-0.006-.01-0.008-0.01l1.672-2.53h0a1.753,1.753,0,0,0-.186-2.26l-2.1-2.1a1.759,1.759,0,0,0-2.266-.19h0l-2.494,1.7h-0.012a0.594,0.594,0,0,1-.346.13,0.559,0.559,0,0,1-.552-0.5,0.014,0.014,0,0,0-.016-0.01l-0.607-2.99h0a1.765,1.765,0,0,0-1.735-1.47h-2.963a1.763,1.763,0,0,0-1.734,1.47h0l-0.56,2.97a0.017,0.017,0,0,1-.018.01h0a0.565,0.565,0,0,1-.566.57,0.579,0.579,0,0,1-.4-0.17,0.011,0.011,0,0,0-.013.01l-2.539-1.74,0,0.01a1.759,1.759,0,0,0-2.267.18l-2.094,2.1a1.747,1.747,0,0,0-.185,2.26l0,0.01,1.717,2.59h0a0.568,0.568,0,0,1,.132.36,0.556,0.556,0,0,1-.506.55,0.038,0.038,0,0,0,0,.01l-3,.57h0a1.761,1.761,0,0,0-1.473,1.73v2.97a1.759,1.759,0,0,0,1.471,1.73h0l3.017,0.62,0,0.01a0.543,0.543,0,0,1,.365.88s0.006,0.01.008,0.01l-1.75,2.57h0a1.747,1.747,0,0,0,.186,2.26l2.1,2.1a1.757,1.757,0,0,0,2.266.18l0,0.01,2.594-1.72s0.011,0.01.017,0.01a0.538,0.538,0,0,1,.367-0.14,0.56,0.56,0,0,1,.559.52h0.008l0.57,3.03h0a1.763,1.763,0,0,0,1.734,1.47h2.963a1.765,1.765,0,0,0,1.735-1.47h0l0.619-3.04a0.012,0.012,0,0,1,.013-0.01,0.546,0.546,0,0,1,.852-0.35s0.008-.01.012-0.01l2.547,1.69h0a1.757,1.757,0,0,0,2.265-.19l2.094-2.09a1.764,1.764,0,0,0,.187-2.27h0l-1.7-2.5s0.006,0,.006-0.01a0.564,0.564,0,0,1-.15-0.38,0.57,0.57,0,0,1,.543-0.56h0l3.017-.62h0a1.759,1.759,0,0,0,1.471-1.73v-2.97A1.759,1.759,0,0,0,863.529,2186.26Zm-17.055,3.22A3.527,3.527,0,1,1,850,2193,3.528,3.528,0,0,1,846.474,2189.48Z" transform="translate(-835 -2174.5)"/>
</svg>
